<svg xmlns="http://www.w3.org/2000/svg" xmlns:xlink="http://www.w3.org/1999/xlink" version="1.1" viewBox="101.68 23.35 199.68 110.24">
<g id="surface1">
<path style=" stroke:none;fill-rule:nonzero;fill:rgb(40%,40%,40%);fill-opacity:0.454902;" d="M 195.632812 112.042969 L 195.632812 125.578125 L 197.25 125.578125 L 197.25 112.042969 Z M 200.371094 112.339844 L 200.371094 114.035156 L 201.949219 114.035156 L 201.949219 112.339844 Z M 190.683594 112.355469 L 190.683594 114.050781 L 192.390625 114.050781 L 192.390625 112.355469 Z M 205.335938 112.609375 L 205.335938 115.402344 L 204.230469 115.402344 L 204.230469 116.777344 L 205.335938 116.777344 L 205.335938 121.945312 C 205.335938 123.121094 205.59375 123.976562 206.113281 124.511719 C 206.628906 125.042969 207.382812 125.3125 208.375 125.3125 C 208.660156 125.3125 208.984375 125.285156 209.34375 125.234375 C 209.664062 125.1875 209.957031 125.128906 210.230469 125.0625 L 210.230469 123.574219 C 210.101562 123.625 209.914062 123.6875 209.640625 123.761719 C 209.347656 123.835938 209.070312 123.875 208.804688 123.875 C 208.34375 123.875 208 123.824219 207.773438 123.71875 C 207.554688 123.609375 207.378906 123.4375 207.253906 123.207031 C 207.113281 122.957031 207.03125 122.691406 207.007812 122.40625 C 206.984375 122.117188 206.972656 121.714844 206.972656 121.203125 L 206.972656 116.777344 L 210.230469 116.777344 L 210.230469 115.402344 L 206.972656 115.402344 L 206.972656 112.609375 Z M 211.191406 112.625 L 215.066406 121.871094 L 213.253906 125.925781 L 215.003906 125.925781 L 216.136719 123.5625 L 219.816406 112.832031 L 215.957031 119.828125 L 212.96875 112.625 Z M 183.765625 112.679688 L 183.765625 115.472656 L 182.660156 115.472656 L 182.660156 116.847656 L 183.765625 116.847656 L 183.765625 122.015625 C 183.765625 123.191406 184.027344 124.046875 184.542969 124.582031 C 185.058594 125.117188 185.816406 125.382812 186.808594 125.382812 C 187.09375 125.382812 187.414062 125.355469 187.773438 125.304688 C 188.140625 125.25 188.476562 125.183594 188.785156 125.105469 L 188.785156 123.632812 L 188.699219 123.632812 C 188.570312 123.6875 188.359375 123.753906 188.070312 123.832031 C 187.78125 123.910156 187.5 123.945312 187.234375 123.945312 C 186.777344 123.945312 186.433594 123.894531 186.207031 123.789062 C 185.984375 123.679688 185.8125 123.507812 185.683594 123.277344 C 185.542969 123.027344 185.464844 122.761719 185.441406 122.476562 C 185.417969 122.1875 185.40625 121.785156 185.40625 121.277344 L 185.40625 116.847656 L 188.785156 116.847656 L 188.785156 115.472656 L 185.40625 115.472656 L 185.40625 112.679688 Z M 172.5 116.625 L 172.347656 113.117188 C 172.324219 112.566406 171.285156 112.957031 170.605469 112.84375 C 170.632812 115.433594 170.402344 123.300781 171.183594 123.792969 C 172.90625 126.496094 174.507812 125.8125 175.113281 126.027344 C 177.835938 126.246094 176.929688 125.703125 177.742188 125.703125 C 178.539062 125.703125 178.640625 125 179.238281 124.796875 C 179.835938 124.59375 179.4375 124.453125 179.882812 124.015625 C 180.355469 123.550781 180.042969 123.753906 180.246094 123.058594 C 180.457031 122.355469 180.5625 121.535156 180.5625 120.597656 L 180.5625 112.84375 L 178.835938 112.84375 L 178.835938 120.726562 C 178.835938 121.359375 178.785156 121.890625 178.6875 122.320312 C 178.59375 122.742188 178.433594 123.121094 178.207031 123.449219 C 177.949219 123.832031 177.230469 124.242188 176.792969 124.433594 C 176.359375 124.621094 176.199219 124.589844 175.578125 124.589844 C 174.960938 124.589844 174.433594 124.492188 173.992188 124.300781 C 173.558594 124.109375 172.859375 123.304688 172.601562 122.925781 C 172.375 122.597656 172.550781 119.550781 172.453125 119.144531 C 172.359375 118.738281 172.464844 119.847656 172.453125 119.144531 L 172.328125 112.84375 Z M 239.882812 113.609375 L 239.882812 127.148438 L 241.453125 127.148438 L 241.453125 113.609375 Z M 229.230469 113.652344 L 229.230469 126.605469 L 230.957031 126.605469 L 230.957031 121.777344 L 232.679688 121.777344 C 233.609375 121.777344 234.378906 121.667969 234.988281 121.449219 C 235.597656 121.222656 236.128906 120.886719 236.574219 120.4375 C 236.933594 120.078125 237.214844 119.65625 237.410156 119.167969 C 237.433594 119.113281 237.449219 119.058594 237.46875 119 L 237.46875 116.058594 C 237.421875 115.929688 237.367188 115.808594 237.304688 115.699219 C 237.039062 115.203125 236.660156 114.792969 236.164062 114.460938 C 235.746094 114.183594 235.265625 113.980469 234.726562 113.855469 C 234.1875 113.71875 233.527344 113.652344 232.75 113.652344 Z M 152.753906 113.835938 L 156.632812 123.082031 L 154.820312 127.136719 L 156.570312 127.136719 L 161.808594 114.875 L 161.808594 113.835938 L 160.535156 113.835938 L 157.519531 121.039062 L 154.53125 113.835938 Z M 146.351562 114.566406 C 145.820312 114.566406 145.28125 114.683594 144.742188 114.914062 C 144.203125 115.140625 143.742188 115.460938 143.363281 115.871094 C 142.957031 116.3125 142.636719 116.835938 142.398438 117.445312 C 142.164062 118.050781 142.050781 118.769531 142.050781 119.605469 C 142.050781 121.128906 142.390625 122.3125 143.070312 123.152344 C 143.753906 123.988281 144.675781 124.40625 145.839844 124.40625 C 146.535156 124.40625 147.109375 124.308594 147.554688 124.121094 C 148.007812 123.921875 148.480469 123.625 148.976562 123.230469 L 148.976562 124.121094 C 148.976562 124.511719 148.929688 124.871094 148.84375 125.1875 C 148.757812 125.507812 148.613281 125.78125 148.410156 126.007812 C 148.207031 126.246094 147.921875 126.429688 147.554688 126.5625 C 147.1875 126.695312 146.726562 126.765625 146.167969 126.765625 C 145.589844 126.765625 145.007812 126.683594 144.425781 126.527344 C 143.847656 126.378906 143.421875 126.25 143.15625 126.144531 L 143.070312 126.144531 L 143.070312 127.816406 C 143.546875 127.949219 144.027344 128.050781 144.515625 128.121094 C 145.007812 128.195312 145.511719 128.234375 146.03125 128.234375 C 147.585938 128.234375 148.738281 127.847656 149.488281 127.078125 C 149.855469 126.699219 150.132812 126.214844 150.316406 125.628906 L 150.316406 114.835938 L 149.078125 114.835938 L 148.976562 115.253906 C 148.550781 115.023438 148.148438 114.851562 147.765625 114.742188 C 147.386719 114.625 146.917969 114.566406 146.351562 114.566406 Z M 230.957031 115.132812 L 232.664062 115.132812 C 233.210938 115.132812 233.660156 115.171875 234.011719 115.253906 C 234.375 115.328125 234.691406 115.457031 234.972656 115.636719 C 235.289062 115.847656 235.527344 116.117188 235.6875 116.445312 C 235.84375 116.777344 235.921875 117.164062 235.921875 117.613281 C 235.921875 117.996094 235.863281 118.339844 235.746094 118.648438 C 235.636719 118.953125 235.445312 119.246094 235.171875 119.527344 C 234.898438 119.796875 234.542969 120 234.109375 120.125 C 233.671875 120.246094 233.105469 120.308594 232.410156 120.308594 L 230.957031 120.308594 Z M 200.476562 115.660156 L 200.476562 125.378906 L 201.949219 125.378906 L 201.949219 115.660156 Z M 190.789062 115.675781 L 190.789062 125.394531 L 192.390625 125.394531 L 192.390625 115.675781 Z M 255.476562 115.71875 L 255.476562 118.507812 L 254.371094 118.507812 L 254.371094 119.882812 L 255.476562 119.882812 L 255.476562 125.050781 C 255.476562 126.230469 255.734375 127.085938 256.253906 127.617188 C 256.769531 128.152344 257.523438 128.417969 258.519531 128.417969 C 258.800781 128.417969 259.125 128.390625 259.484375 128.339844 C 259.816406 128.292969 260.121094 128.230469 260.40625 128.160156 L 260.40625 126.667969 C 260.28125 126.722656 260.070312 126.789062 259.78125 126.871094 C 259.492188 126.945312 259.210938 126.984375 258.945312 126.984375 C 258.484375 126.984375 258.144531 126.929688 257.917969 126.828125 C 257.695312 126.714844 257.523438 126.546875 257.394531 126.3125 C 257.253906 126.0625 257.171875 125.796875 257.148438 125.511719 C 257.128906 125.222656 257.117188 124.824219 257.117188 124.3125 L 257.117188 119.882812 L 260.40625 119.882812 L 260.40625 118.507812 L 257.117188 118.507812 L 257.117188 115.71875 Z M 146.640625 116.039062 C 147.011719 116.039062 147.382812 116.082031 147.753906 116.167969 C 148.132812 116.25 148.539062 116.386719 148.976562 116.585938 L 148.976562 121.882812 C 148.574219 122.191406 148.132812 122.4375 147.652344 122.621094 C 147.175781 122.800781 146.699219 122.890625 146.222656 122.890625 C 145.332031 122.890625 144.699219 122.609375 144.3125 122.046875 C 143.929688 121.484375 143.738281 120.660156 143.738281 119.570312 C 143.738281 118.421875 143.996094 117.546875 144.515625 116.941406 C 145.03125 116.339844 145.738281 116.039062 146.640625 116.039062 Z M 265.921875 116.097656 C 264.835938 116.097656 264.007812 116.410156 263.429688 117.027344 C 262.855469 117.644531 262.570312 118.527344 262.570312 119.683594 L 262.570312 120.003906 L 261.460938 120.003906 L 261.460938 121.378906 L 262.570312 121.378906 L 262.570312 129.722656 L 264.207031 129.722656 L 264.207031 121.378906 L 267.105469 121.378906 L 267.105469 120.003906 L 264.152344 120.003906 L 264.152344 119.671875 C 264.152344 118.863281 264.3125 118.300781 264.625 117.996094 C 264.945312 117.679688 265.453125 117.523438 266.15625 117.523438 C 266.378906 117.523438 266.632812 117.554688 266.925781 117.613281 C 267.160156 117.65625 267.332031 117.695312 267.496094 117.738281 L 267.496094 116.238281 C 267.308594 116.207031 267.121094 116.175781 266.90625 116.148438 C 266.617188 116.117188 266.289062 116.097656 265.921875 116.097656 Z M 248.039062 116.15625 C 247.453125 116.15625 246.855469 116.207031 246.253906 116.3125 C 245.648438 116.417969 245.1875 116.511719 244.867188 116.597656 L 244.867188 118.261719 L 244.953125 118.261719 C 245.519531 118.046875 246.0625 117.882812 246.59375 117.773438 C 247.121094 117.65625 247.601562 117.601562 248.03125 117.601562 C 248.382812 117.601562 248.722656 117.621094 249.050781 117.667969 C 249.375 117.714844 249.652344 117.804688 249.886719 117.9375 C 250.128906 118.078125 250.316406 118.269531 250.441406 118.511719 C 250.574219 118.757812 250.644531 119.0625 250.644531 119.433594 L 250.644531 119.6875 C 249.691406 119.734375 248.800781 119.804688 247.96875 119.894531 C 247.136719 119.988281 246.425781 120.167969 245.835938 120.425781 C 245.246094 120.6875 244.796875 121.046875 244.476562 121.503906 C 244.160156 121.957031 244.003906 122.550781 244.003906 123.289062 C 244.003906 124.1875 244.308594 124.925781 244.917969 125.507812 C 245.53125 126.085938 246.273438 126.378906 247.148438 126.378906 C 247.625 126.378906 248.042969 126.332031 248.394531 126.238281 C 248.75 126.152344 249.0625 126.042969 249.335938 125.90625 C 249.570312 125.804688 249.808594 125.664062 250.050781 125.488281 C 250.300781 125.308594 250.496094 125.171875 250.644531 125.074219 L 250.644531 126.109375 L 252.042969 126.109375 L 252.042969 118.097656 C 252.023438 118.046875 252.007812 117.988281 251.984375 117.9375 C 251.792969 117.515625 251.515625 117.171875 251.148438 116.902344 C 250.777344 116.632812 250.335938 116.441406 249.824219 116.328125 C 249.320312 116.214844 248.722656 116.15625 248.039062 116.15625 Z M 135.089844 117.246094 L 135.089844 126.964844 L 136.726562 126.964844 L 136.726562 120.066406 C 137.164062 119.710938 137.617188 119.425781 138.085938 119.203125 C 138.554688 118.976562 139.042969 118.863281 139.550781 118.863281 C 139.863281 118.863281 140.132812 118.878906 140.359375 118.90625 C 140.558594 118.929688 140.761719 118.964844 140.96875 119.007812 L 140.96875 117.324219 C 140.828125 117.304688 140.671875 117.28125 140.585938 117.273438 C 140.457031 117.253906 140.253906 117.246094 139.96875 117.246094 C 139.449219 117.246094 138.941406 117.355469 138.441406 117.578125 C 137.949219 117.792969 137.378906 118.160156 136.726562 118.683594 L 136.726562 117.246094 Z M 128.503906 118.351562 C 127.085938 118.351562 125.941406 118.816406 125.070312 119.75 C 124.207031 120.683594 123.773438 121.945312 123.773438 123.535156 C 123.773438 125.140625 124.226562 126.382812 125.132812 127.257812 C 126.039062 128.128906 127.296875 128.5625 128.914062 128.5625 C 129.546875 128.5625 130.148438 128.484375 130.726562 128.328125 C 131.257812 128.183594 131.78125 128 132.296875 127.789062 L 132.296875 125.984375 C 132.007812 126.234375 131.542969 126.484375 130.890625 126.746094 C 130.222656 127.003906 129.558594 127.136719 128.894531 127.136719 C 128.394531 127.136719 127.9375 127.066406 127.519531 126.925781 C 127.105469 126.789062 126.75 126.578125 126.449219 126.300781 C 126.132812 126.015625 125.886719 125.65625 125.707031 125.214844 C 125.527344 124.765625 125.4375 124.246094 125.4375 123.648438 L 132.296875 123.648438 L 132.296875 120.777344 C 132.117188 120.28125 131.867188 119.855469 131.535156 119.496094 C 130.828125 118.734375 129.816406 118.351562 128.503906 118.351562 Z M 272.558594 119.042969 C 271.183594 119.042969 270.089844 119.503906 269.277344 120.425781 C 268.46875 121.34375 268.066406 122.59375 268.066406 124.175781 C 268.066406 125.757812 268.46875 127.007812 269.277344 127.925781 C 270.089844 128.839844 271.183594 129.300781 272.558594 129.300781 C 273.925781 129.300781 275.015625 128.839844 275.828125 127.925781 C 276.441406 127.230469 276.824219 126.34375 276.972656 125.265625 L 276.972656 123.085938 C 276.824219 122.007812 276.441406 121.121094 275.828125 120.425781 C 275.015625 119.503906 273.925781 119.042969 272.558594 119.042969 Z M 128.417969 119.699219 C 129.289062 119.699219 129.933594 119.933594 130.359375 120.402344 C 130.789062 120.871094 131.007812 121.535156 131.011719 122.394531 L 125.4375 122.394531 C 125.507812 121.628906 125.800781 120.988281 126.316406 120.472656 C 126.839844 119.957031 127.539062 119.699219 128.417969 119.699219 Z M 118.078125 120.019531 C 117.5 120.019531 116.941406 120.140625 116.394531 120.375 C 115.847656 120.613281 115.320312 120.945312 114.808594 121.367188 L 114.808594 120.289062 L 113.171875 120.289062 L 113.171875 130.007812 L 114.808594 130.007812 L 114.808594 122.75 C 115.257812 122.410156 115.722656 122.128906 116.210938 121.90625 C 116.699219 121.6875 117.167969 121.578125 117.613281 121.578125 C 118.050781 121.578125 118.40625 121.636719 118.675781 121.761719 C 118.949219 121.875 119.160156 122.054688 119.304688 122.300781 C 119.445312 122.519531 119.539062 122.828125 119.59375 123.222656 C 119.644531 123.609375 119.671875 124.027344 119.671875 124.472656 L 119.671875 130.007812 L 121.257812 130.007812 L 121.257812 122.878906 C 121.15625 122.082031 120.898438 121.445312 120.480469 120.96875 C 119.929688 120.335938 119.128906 120.019531 118.078125 120.019531 Z M 272.558594 120.453125 C 273.4375 120.453125 274.121094 120.757812 274.617188 121.375 C 275.109375 121.984375 275.355469 122.917969 275.355469 124.175781 C 275.355469 125.40625 275.105469 126.332031 274.605469 126.960938 C 274.113281 127.578125 273.429688 127.890625 272.558594 127.890625 C 271.675781 127.890625 270.988281 127.578125 270.496094 126.949219 C 270.003906 126.320312 269.753906 125.394531 269.753906 124.175781 C 269.753906 122.917969 270 121.984375 270.488281 121.375 C 270.980469 120.757812 271.671875 120.453125 272.558594 120.453125 Z M 201.90625 133.519531 L 101.78125 133.449219 L 110.324219 133.449219 L 110.324219 131.917969 L 103.503906 131.917969 L 103.503906 127.105469 L 110.324219 127.105469 L 110.324219 125.574219 L 103.503906 125.574219 L 103.503906 122.027344 L 103.410156 124.144531 L 108.828125 124.742188 Z M 279.589844 120.605469 L 279.589844 130.324219 L 281.226562 130.324219 L 281.226562 123.425781 C 281.664062 123.070312 282.117188 122.785156 282.585938 122.5625 C 283.058594 122.335938 283.546875 122.222656 284.050781 122.222656 C 284.363281 122.222656 284.632812 122.238281 284.859375 122.269531 C 285.09375 122.292969 285.332031 122.332031 285.574219 122.390625 L 285.574219 120.699219 C 285.375 120.667969 285.195312 120.640625 285.085938 120.632812 C 284.960938 120.613281 284.753906 120.605469 284.46875 120.605469 C 283.953125 120.605469 283.445312 120.714844 282.945312 120.9375 C 282.449219 121.152344 281.878906 121.519531 281.226562 122.042969 L 281.226562 120.605469 Z M 250.644531 121.011719 L 250.644531 123.714844 C 250.238281 124.027344 249.796875 124.296875 249.320312 124.523438 C 248.84375 124.746094 248.316406 124.855469 247.742188 124.855469 C 247.050781 124.855469 246.535156 124.714844 246.199219 124.4375 C 245.863281 124.152344 245.695312 123.734375 245.695312 123.175781 C 245.695312 122.683594 245.839844 122.296875 246.128906 122.019531 C 246.421875 121.734375 246.800781 121.527344 247.273438 121.394531 C 247.667969 121.28125 248.199219 121.199219 248.875 121.140625 C 249.554688 121.082031 250.144531 121.039062 250.644531 121.011719 Z M 292.011719 123.5 C 291.4375 123.5 290.894531 123.621094 290.382812 123.855469 C 289.878906 124.09375 289.371094 124.425781 288.859375 124.847656 L 288.859375 123.769531 L 287.222656 123.769531 L 287.222656 133.488281 L 288.859375 133.488281 L 288.859375 126.230469 C 289.304688 125.890625 289.753906 125.609375 290.199219 125.386719 C 290.652344 125.167969 291.101562 125.058594 291.550781 125.058594 C 292.019531 125.058594 292.382812 125.121094 292.628906 125.25 C 292.878906 125.371094 293.070312 125.554688 293.207031 125.804688 C 293.328125 126.039062 293.40625 126.347656 293.441406 126.738281 C 293.480469 127.121094 293.503906 127.527344 293.503906 127.953125 L 293.503906 133.488281 L 295.140625 133.488281 L 295.140625 127.265625 C 295.140625 127.09375 295.132812 126.917969 295.121094 126.746094 C 295.109375 126.566406 295.097656 126.410156 295.078125 126.277344 C 295.539062 125.921875 295.996094 125.632812 296.457031 125.40625 C 296.914062 125.171875 297.371094 125.058594 297.832031 125.058594 C 298.300781 125.058594 298.355469 125.035156 298.605469 125.164062 C 298.855469 125.289062 298.863281 125.066406 298.996094 125.3125 C 299.117188 125.546875 299.6875 126.355469 299.722656 126.746094 C 299.761719 127.132812 299.78125 127.539062 299.78125 127.953125 L 299.78125 133.488281 L 301.265625 133.488281 L 201.90625 133.519531 C 202.367188 133.472656 298.578125 123.859375 298.292969 123.5 C 297.789062 122.851562 298.074219 123.445312 297.574219 123.585938 C 296.976562 123.757812 297.089844 123.625 296.542969 123.875 C 295.996094 124.117188 295.390625 124.519531 294.730469 125.074219 C 294.503906 124.582031 294.160156 124.195312 293.695312 123.917969 C 293.234375 123.640625 292.675781 123.5 292.011719 123.5 Z M 292.011719 123.5 "/>
<path style="fill-rule:nonzero;fill:rgb(83.137255%,0%,0%);fill-opacity:0.454902;stroke-width:0.2;stroke-linecap:square;stroke-linejoin:miter;stroke:rgb(0%,0%,0%);stroke-opacity:1;stroke-miterlimit:4;" d="M 116.053358 66.55141 L 116.053358 74.5915 L 117.012706 74.5915 L 117.012706 66.55141 Z M 118.864203 66.727758 L 118.864203 67.7348 L 119.800378 67.7348 L 119.800378 66.727758 Z M 113.117381 66.737039 L 113.117381 67.744081 L 114.130026 67.744081 L 114.130026 66.737039 Z M 121.809449 66.887864 L 121.809449 68.54693 L 121.153662 68.54693 L 121.153662 69.363701 L 121.809449 69.363701 L 121.809449 72.433554 C 121.809449 73.131986 121.962388 73.640147 122.270585 73.958038 C 122.576464 74.273609 123.023697 74.433714 123.612282 74.433714 C 123.781443 74.433714 123.973776 74.417472 124.186964 74.387307 C 124.37698 74.359463 124.550775 74.324657 124.712984 74.285211 L 124.712984 73.401149 C 124.636514 73.431314 124.525285 73.46844 124.363077 73.512527 C 124.189282 73.556614 124.024756 73.579817 123.867182 73.579817 C 123.593744 73.579817 123.389825 73.549653 123.255423 73.487003 C 123.125656 73.422032 123.021379 73.319936 122.947227 73.183034 C 122.863805 73.03453 122.815142 72.876745 122.801239 72.707357 C 122.787335 72.53565 122.780383 72.296652 122.780383 71.992683 L 122.780383 69.363701 L 124.712984 69.363701 L 124.712984 68.54693 L 122.780383 68.54693 L 122.780383 66.887864 Z M 125.283032 66.897145 L 127.58176 72.389466 L 126.506549 74.798013 L 127.544684 74.798013 L 130.856058 67.036367 L 130.856058 66.897145 L 129.89671 66.897145 L 128.110097 71.175912 L 126.337388 66.897145 Z M 109.013501 66.92963 L 109.013501 68.588697 L 108.357715 68.588697 L 108.357715 69.405468 L 109.013501 69.405468 L 109.013501 72.47532 C 109.013501 73.173752 109.168758 73.681914 109.474637 73.999805 C 109.780517 74.317696 110.230066 74.475481 110.818652 74.475481 C 110.987813 74.475481 111.177828 74.459239 111.391017 74.429074 C 111.60884 74.396589 111.808125 74.357142 111.991189 74.310735 L 111.991189 73.435954 L 111.940209 73.435954 C 111.863739 73.46844 111.738607 73.507886 111.567129 73.554293 C 111.395652 73.600701 111.228808 73.621584 111.071234 73.621584 C 110.800114 73.621584 110.596194 73.591419 110.461793 73.528769 C 110.329709 73.463799 110.227749 73.361702 110.151279 73.2248 C 110.067858 73.076297 110.021512 72.918511 110.007609 72.749124 C 109.993705 72.577417 109.986753 72.338418 109.986753 72.03677 L 109.986753 69.405468 L 111.991189 69.405468 L 111.991189 68.588697 L 109.986753 68.588697 L 109.986753 66.92963 Z M 101.206629 67.027086 L 101.206629 71.633025 C 101.206629 72.215439 101.266878 72.705037 101.387376 73.104141 C 101.510191 73.505566 101.711793 73.84666 101.992183 74.127425 C 102.235496 74.375705 102.53674 74.563655 102.895917 74.691276 C 103.255093 74.818896 103.674518 74.883867 104.15651 74.883867 C 104.629232 74.883867 105.041706 74.823537 105.396248 74.702878 C 105.753107 74.582218 106.061303 74.389627 106.327789 74.127425 C 106.605861 73.853621 106.805146 73.507886 106.925644 73.09486 C 107.050776 72.677193 107.113342 72.189914 107.113342 71.633025 L 107.113342 67.027086 L 106.08911 67.027086 L 106.08911 71.709597 C 106.08911 72.085498 106.061303 72.401068 106.001054 72.656309 C 105.947757 72.906909 105.852749 73.131986 105.718348 73.326897 C 105.563091 73.554293 105.356854 73.726001 105.09732 73.839699 C 104.840104 73.948757 104.524955 74.004446 104.15651 74.004446 C 103.792699 74.004446 103.477551 73.946436 103.2157 73.832738 C 102.958483 73.71904 102.752246 73.551973 102.601624 73.326897 C 102.467222 73.131986 102.369897 72.91155 102.311965 72.670232 C 102.256351 72.428913 102.228544 72.10174 102.228544 71.684073 L 102.228544 67.027086 Z M 142.303357 67.481879 L 142.303357 75.524289 L 143.234898 75.524289 L 143.234898 67.481879 Z M 135.98417 67.507403 L 135.98417 75.201758 L 137.008402 75.201758 L 137.008402 72.333778 L 138.030317 72.333778 C 138.581826 72.333778 139.038328 72.268807 139.399821 72.138866 C 139.761315 72.004285 140.076463 71.804733 140.340632 71.53789 C 140.55382 71.324416 140.720663 71.073815 140.836527 70.783769 C 140.85043 70.751284 140.859699 70.718798 140.871286 70.683993 L 140.871286 68.936752 C 140.843479 68.86018 140.811037 68.788249 140.773961 68.723278 C 140.616386 68.428591 140.391611 68.184952 140.097319 67.98772 C 139.849371 67.822974 139.564347 67.702314 139.244564 67.628062 C 138.924782 67.546849 138.533163 67.507403 138.072027 67.507403 Z M 90.61672 67.616461 L 92.917766 73.108782 L 91.842554 75.517328 L 92.880689 75.517328 L 95.988144 68.23368 L 95.988144 67.616461 L 95.232715 67.616461 L 93.443785 71.895227 L 91.671076 67.616461 Z M 86.818719 68.05037 C 86.503571 68.05037 86.183788 68.119981 85.864005 68.256883 C 85.544223 68.391465 85.270785 68.581735 85.04601 68.825375 C 84.805015 69.087577 84.614999 69.398507 84.473645 69.760485 C 84.334609 70.120142 84.267409 70.547091 84.267409 71.04365 C 84.267409 71.948596 84.469011 72.651669 84.872215 73.150549 C 85.277737 73.647108 85.824612 73.895388 86.515157 73.895388 C 86.927631 73.895388 87.268269 73.839699 87.532438 73.726001 C 87.801241 73.607662 88.08163 73.431314 88.375923 73.196956 L 88.375923 73.726001 C 88.375923 73.958038 88.348116 74.171512 88.297136 74.359463 C 88.246156 74.549733 88.160417 74.712159 88.039919 74.846741 C 87.919421 74.988283 87.750261 75.097341 87.532438 75.176234 C 87.314615 75.255126 87.041177 75.296893 86.709808 75.296893 C 86.366852 75.296893 86.02158 75.248165 85.676307 75.15535 C 85.333351 75.067176 85.080769 74.990604 84.923195 74.927954 L 84.872215 74.927954 L 84.872215 75.921073 C 85.154922 75.999966 85.439946 76.060295 85.729604 76.102062 C 86.02158 76.146149 86.320507 76.169353 86.628704 76.169353 C 87.550976 76.169353 88.234569 75.939636 88.679485 75.482523 C 88.897308 75.257447 89.061834 74.96972 89.170745 74.621665 L 89.170745 68.210476 L 88.436172 68.210476 L 88.375923 68.458756 C 88.123341 68.321854 87.884662 68.219757 87.65757 68.154787 C 87.432795 68.085176 87.154723 68.05037 86.818719 68.05037 Z M 137.008402 68.386824 L 138.021047 68.386824 C 138.345465 68.386824 138.611951 68.410028 138.820505 68.458756 C 139.03601 68.502843 139.223709 68.579415 139.390552 68.686152 C 139.578251 68.811452 139.719604 68.971558 139.814612 69.166469 C 139.907303 69.363701 139.953648 69.593418 139.953648 69.860261 C 139.953648 70.087657 139.918889 70.29185 139.849371 70.475159 C 139.784488 70.656148 139.670941 70.830176 139.508733 70.997243 C 139.346524 71.157349 139.135653 71.278008 138.878436 71.35226 C 138.618902 71.424192 138.282899 71.461318 137.870425 71.461318 L 137.008402 71.461318 Z M 118.926769 68.700074 L 118.926769 74.473161 L 119.800378 74.473161 L 119.800378 68.700074 Z M 113.179947 68.709356 L 113.179947 74.482442 L 114.130026 74.482442 L 114.130026 68.709356 Z M 151.553886 68.73488 L 151.553886 70.391626 L 150.898099 70.391626 L 150.898099 71.208397 L 151.553886 71.208397 L 151.553886 74.27825 C 151.553886 74.979002 151.706825 75.487164 152.015022 75.802734 C 152.320901 76.120625 152.768134 76.27841 153.359037 76.27841 C 153.52588 76.27841 153.718213 76.262168 153.931402 76.232003 C 154.128369 76.204159 154.309116 76.167033 154.478277 76.125266 L 154.478277 75.238884 C 154.404124 75.271369 154.278992 75.310815 154.107514 75.359543 C 153.936036 75.40363 153.769193 75.426834 153.611619 75.426834 C 153.338181 75.426834 153.136579 75.394349 153.002178 75.334019 C 152.870093 75.266728 152.768134 75.166952 152.691664 75.02773 C 152.608242 74.879226 152.55958 74.721441 152.545676 74.552053 C 152.53409 74.380346 152.527138 74.143668 152.527138 73.839699 L 152.527138 71.208397 L 154.478277 71.208397 L 154.478277 70.391626 L 152.527138 70.391626 L 152.527138 68.73488 Z M 86.990197 68.925151 C 87.210338 68.925151 87.430478 68.950675 87.650618 69.001723 C 87.875393 69.050451 88.116389 69.131664 88.375923 69.250003 L 88.375923 72.396428 C 88.137244 72.579737 87.875393 72.72592 87.590369 72.834978 C 87.307663 72.941715 87.024956 72.995084 86.74225 72.995084 C 86.213913 72.995084 85.838516 72.828017 85.609106 72.493883 C 85.382014 72.15975 85.268468 71.670151 85.268468 71.022767 C 85.268468 70.340578 85.421408 69.820814 85.729604 69.461157 C 86.035483 69.103819 86.454909 68.925151 86.990197 68.925151 Z M 157.750257 68.959956 C 157.106057 68.959956 156.614797 69.145586 156.271841 69.512205 C 155.931203 69.878824 155.762042 70.403228 155.762042 71.090058 L 155.762042 71.280328 L 155.103939 71.280328 L 155.103939 72.0971 L 155.762042 72.0971 L 155.762042 77.053415 L 156.732977 77.053415 L 156.732977 72.0971 L 158.452389 72.0971 L 158.452389 71.280328 L 156.700535 71.280328 L 156.700535 71.083097 C 156.700535 70.60278 156.795543 70.268646 156.980925 70.087657 C 157.170941 69.899707 157.472185 69.806892 157.889293 69.806892 C 158.021378 69.806892 158.172 69.825455 158.345795 69.860261 C 158.484831 69.885785 158.586791 69.908988 158.684116 69.934513 L 158.684116 69.04349 C 158.572887 69.024927 158.461658 69.006364 158.334209 68.990121 C 158.162731 68.971558 157.96808 68.959956 157.750257 68.959956 Z M 147.14181 68.994762 C 146.79422 68.994762 146.439678 69.024927 146.082819 69.087577 C 145.723642 69.150227 145.450205 69.205916 145.260189 69.256964 L 145.260189 70.245442 L 145.311169 70.245442 C 145.647173 70.117822 145.969273 70.020366 146.284421 69.955396 C 146.597252 69.885785 146.882276 69.853299 147.137175 69.853299 C 147.345729 69.853299 147.547331 69.864901 147.741982 69.892746 C 147.934315 69.92059 148.098841 69.973959 148.237877 70.052852 C 148.381548 70.136385 148.492776 70.250083 148.566929 70.393946 C 148.645716 70.54013 148.687427 70.721119 148.687427 70.941554 L 148.687427 71.092378 C 148.122014 71.120223 147.593677 71.161989 147.100099 71.215358 C 146.606521 71.271047 146.184779 71.377784 145.834871 71.530929 C 145.484964 71.686394 145.218478 71.899868 145.028462 72.171351 C 144.840764 72.440515 144.748073 72.793211 144.748073 73.231762 C 144.748073 73.765447 144.92882 74.203998 145.290314 74.549733 C 145.654124 74.893148 146.094405 75.067176 146.613473 75.067176 C 146.896179 75.067176 147.144127 75.039332 147.352681 74.983643 C 147.563552 74.932595 147.748934 74.867624 147.911142 74.786411 C 148.050178 74.726081 148.191532 74.642548 148.335202 74.538131 C 148.483507 74.431394 148.599371 74.350181 148.687427 74.292172 L 148.687427 74.90707 L 149.517008 74.90707 L 149.517008 70.147987 C 149.505422 70.117822 149.496153 70.083016 149.482249 70.052852 C 149.368703 69.802251 149.204177 69.598059 148.986354 69.437953 C 148.766214 69.277847 148.504363 69.164149 148.200801 69.096858 C 147.901873 69.029567 147.547331 68.994762 147.14181 68.994762 Z M 80.138039 69.642146 L 80.138039 75.415232 L 81.108974 75.415232 L 81.108974 71.317454 C 81.368508 71.106301 81.637311 70.936913 81.915383 70.804652 C 82.193455 70.670071 82.483113 70.60278 82.784358 70.60278 C 82.969739 70.60278 83.129631 70.612061 83.264032 70.628304 C 83.382213 70.642226 83.502711 70.663109 83.625526 70.688634 L 83.625526 69.688553 C 83.542104 69.676951 83.449413 69.663029 83.398434 69.658388 C 83.321964 69.646786 83.201466 69.642146 83.032305 69.642146 C 82.724109 69.642146 82.422864 69.707116 82.126254 69.839377 C 81.834278 69.966998 81.495957 70.185113 81.108974 70.496043 L 81.108974 69.642146 Z M 76.231127 70.298811 C 75.389959 70.298811 74.711 70.574935 74.19425 71.129504 C 73.682134 71.684073 73.424917 72.433554 73.424917 73.377945 C 73.424917 74.331618 73.69372 75.069496 74.231326 75.58926 C 74.768932 76.106703 75.515092 76.364264 76.47444 76.364264 C 76.849837 76.364264 77.206697 76.317857 77.549652 76.225042 C 77.8648 76.139188 78.175314 76.030131 78.481193 75.904831 L 78.481193 74.832819 C 78.309716 74.981322 78.033961 75.129826 77.646977 75.285291 C 77.250725 75.438436 76.856789 75.517328 76.462854 75.517328 C 76.166244 75.517328 75.895124 75.475562 75.647176 75.392028 C 75.401546 75.310815 75.190674 75.185515 75.012245 75.020769 C 74.824546 74.851381 74.678558 74.637907 74.571964 74.375705 C 74.46537 74.108862 74.412073 73.800253 74.412073 73.445236 L 78.481193 73.445236 L 78.481193 71.739762 C 78.374599 71.445075 78.226294 71.192154 78.029326 70.97868 C 77.609901 70.526207 77.009729 70.298811 76.231127 70.298811 Z M 161.687294 70.709517 C 160.871616 70.709517 160.222781 70.983321 159.74079 71.530929 C 159.261115 72.076216 159.022437 72.818735 159.022437 73.758486 C 159.022437 74.698237 159.261115 75.440756 159.74079 75.986044 C 160.222781 76.529011 160.871616 76.802815 161.687294 76.802815 C 162.498337 76.802815 163.144855 76.529011 163.626846 75.986044 C 163.990657 75.573017 164.217749 75.046293 164.305805 74.40587 L 164.305805 73.111102 C 164.217749 72.470679 163.990657 71.943955 163.626846 71.530929 C 163.144855 70.983321 162.498337 70.709517 161.687294 70.709517 Z M 76.180147 71.099339 C 76.696898 71.099339 77.079247 71.238562 77.331829 71.517006 C 77.586728 71.795451 77.716495 72.189914 77.718813 72.700396 L 74.412073 72.700396 C 74.453784 72.245603 74.627579 71.865062 74.933458 71.558773 C 75.243972 71.252484 75.658762 71.099339 76.180147 71.099339 Z M 70.046342 71.28961 C 69.703387 71.28961 69.372017 71.361542 69.0476 71.500764 C 68.723183 71.642307 68.410352 71.839538 68.10679 72.090138 L 68.10679 71.449716 L 67.135855 71.449716 L 67.135855 77.222802 L 68.10679 77.222802 L 68.10679 72.91155 C 68.373275 72.709678 68.64903 72.542611 68.938688 72.41035 C 69.228347 72.280409 69.506419 72.215439 69.770587 72.215439 C 70.030121 72.215439 70.240992 72.250244 70.400884 72.324496 C 70.563093 72.391787 70.688225 72.498524 70.773964 72.644707 C 70.857385 72.774648 70.913 72.957958 70.945442 73.192315 C 70.975566 73.422032 70.991787 73.670312 70.991787 73.934834 L 70.991787 77.222802 L 71.932597 77.222802 L 71.932597 72.988123 C 71.872348 72.514767 71.719409 72.136546 71.471461 71.85346 C 71.144727 71.47756 70.669687 71.28961 70.046342 71.28961 Z M 161.687294 71.547171 C 162.208679 71.547171 162.6142 71.72816 162.908493 72.094779 C 163.200469 72.456757 163.346457 73.011326 163.346457 73.758486 C 163.346457 74.489403 163.198152 75.039332 162.901542 75.412912 C 162.609566 75.77953 162.204044 75.96516 161.687294 75.96516 C 161.163591 75.96516 160.755752 75.77953 160.463777 75.40595 C 160.171801 75.032371 160.023496 74.482442 160.023496 73.758486 C 160.023496 73.011326 160.169484 72.456757 160.459142 72.094779 C 160.751118 71.72816 161.161274 71.547171 161.687294 71.547171 Z M 60.378705 71.572695 L 60.378705 79.26705 L 65.446567 79.26705 L 65.446567 78.357464 L 61.400619 78.357464 L 61.400619 75.498765 L 65.446567 75.498765 L 65.446567 74.589179 L 61.400619 74.589179 L 61.400619 72.482281 L 65.446567 72.482281 L 65.446567 71.572695 Z M 165.858374 71.637666 L 165.858374 77.410752 L 166.829309 77.410752 L 166.829309 73.312975 C 167.088843 73.101821 167.357646 72.932434 167.635718 72.800172 C 167.916107 72.665591 168.205765 72.5983 168.504693 72.5983 C 168.690074 72.5983 168.849966 72.607581 168.984367 72.626144 C 169.123403 72.640067 169.264756 72.66327 169.408427 72.698076 L 169.408427 71.693355 C 169.290246 71.674792 169.183652 71.658549 169.118768 71.653908 C 169.044616 71.642307 168.921801 71.637666 168.75264 71.637666 C 168.446761 71.637666 168.145516 71.702636 167.848906 71.834897 C 167.554613 71.962518 167.216292 72.180633 166.829309 72.491563 L 166.829309 71.637666 Z M 148.687427 71.878985 L 148.687427 73.484682 C 148.446431 73.670312 148.18458 73.830418 147.901873 73.964999 C 147.619167 74.09726 147.306336 74.162231 146.965697 74.162231 C 146.555541 74.162231 146.249662 74.078698 146.050377 73.913951 C 145.851092 73.744564 145.75145 73.496284 145.75145 73.164471 C 145.75145 72.872104 145.837189 72.642387 146.008666 72.477641 C 146.182461 72.308253 146.407236 72.185274 146.687625 72.106381 C 146.921669 72.03909 147.236818 71.990362 147.637705 71.955557 C 148.040909 71.920751 148.390817 71.895227 148.687427 71.878985 Z M 173.227283 73.357062 C 172.886644 73.357062 172.564544 73.428993 172.260982 73.568216 C 171.962055 73.709758 171.66081 73.90699 171.357248 74.15759 L 171.357248 73.517167 L 170.386313 73.517167 L 170.386313 79.290254 L 171.357248 79.290254 L 171.357248 74.979002 C 171.621417 74.77713 171.887902 74.610063 172.152071 74.477802 C 172.420874 74.347861 172.687359 74.28289 172.953845 74.28289 C 173.231917 74.28289 173.447423 74.320016 173.593411 74.396589 C 173.741716 74.46852 173.855262 74.577578 173.936366 74.726081 C 174.008202 74.865304 174.054547 75.048613 174.075402 75.28065 C 174.098575 75.508047 174.112479 75.749366 174.112479 76.002286 L 174.112479 79.290254 L 175.083413 79.290254 L 175.083413 75.593901 C 175.083413 75.491804 175.078779 75.387388 175.071827 75.285291 C 175.064875 75.178554 175.057923 75.085739 175.046337 75.006846 C 175.319775 74.795693 175.590895 74.623985 175.864332 74.489403 C 176.135452 74.350181 176.406573 74.28289 176.68001 74.28289 C 176.958082 74.28289 177.171271 74.320016 177.319576 74.396589 C 177.467881 74.47084 177.581427 74.584539 177.662531 74.733043 C 177.734367 74.869944 177.780712 75.053254 177.801567 75.285291 C 177.82474 75.515008 177.836326 75.756327 177.836326 76.002286 L 177.836326 79.290254 L 178.716888 79.290254 L 178.716888 74.7168 C 178.642735 74.410511 178.522237 74.148309 178.353077 73.937155 C 178.054149 73.549653 177.588379 73.357062 176.953448 73.357062 C 176.585002 73.357062 176.239729 73.431314 175.915312 73.579817 C 175.590895 73.723681 175.231718 73.962679 174.8401 74.292172 C 174.705699 73.999805 174.501779 73.770088 174.226025 73.605342 C 173.952587 73.440595 173.621218 73.357062 173.227283 73.357062 Z M 173.227283 73.357062 " transform="matrix(1.685714,0,0,1.683458,0,0.00644757)"/>
<path style=" stroke:none;fill-rule:nonzero;fill:rgb(50.196078%,50.196078%,0%);fill-opacity:1;" d="M 133.960938 23.351562 C 92.921875 143.492188 113.441406 83.421875 133.960938 23.351562 Z M 133.960938 23.351562 "/>
<path style="fill-rule:nonzero;fill:rgb(78.039216%,66.27451%,0%);fill-opacity:0.894118;stroke-width:0.912878;stroke-linecap:square;stroke-linejoin:miter;stroke:rgb(0%,0%,0%);stroke-opacity:1;stroke-miterlimit:4;" d="M 698.649948 433.495824 L 697.227733 433.864332 L 569.388203 481.658189 C 569.468103 481.706255 569.548003 481.754321 569.372223 481.658189 L 489.632317 513.045438 L 432.999405 534.659221 L 525.746984 469.978094 C 521.38446 469.529476 517.005956 469.289145 512.627452 469.257101 C 440.222338 469.257101 381.543994 524.693489 381.543994 593.075715 C 381.543994 616.740324 388.734968 639.92427 402.253998 659.855734 L 478.622137 592.563009 L 478.686057 592.563009 L 478.813896 592.41881 L 421.605707 591.777927 L 572.728011 504.233296 L 698.602008 433.54389 Z M 622.361708 525.446526 L 554.702637 587.419922 L 549.892675 592.018258 L 604.288395 591.809971 L 451.600056 679.899353 L 328.33079 753.873285 L 328.698329 754.482124 L 591.632281 654.760714 L 501.713152 716.301513 C 505.340599 716.637977 508.984025 716.846264 512.627452 716.89433 C 585.016586 716.89433 643.71091 661.457942 643.71091 593.075715 C 643.69493 569.058621 636.280237 545.554234 622.361708 525.446526 Z M 330.743761 751.005333 L 330.536022 751.149532 L 328.18697 753.664998 L 328.21893 753.713064 Z M 330.743761 751.005333 " transform="matrix(0.244447,0,0,0.243804,72.404559,-70.109983)"/>
<path style=" stroke:none;fill-rule:nonzero;fill:rgb(100%,40%,0%);fill-opacity:0.454902;" d="M 145.398438 83.027344 C 144.710938 83 144.027344 83.113281 143.382812 83.371094 C 140.75 84.417969 139.402344 87.507812 140.359375 90.304688 C 141.320312 93.101562 144.230469 94.5625 146.882812 93.578125 C 149.539062 92.597656 150.953125 89.539062 150.054688 86.71875 L 149.972656 86.484375 C 149.234375 84.472656 147.4375 83.117188 145.398438 83.027344 Z M 156.3125 88.28125 L 146.601562 94.332031 C 150.570312 94.167969 154.554688 94.96875 155.207031 96.574219 C 155.296875 96.789062 155.300781 96.949219 155.269531 97.082031 C 157.074219 94.945312 157.539062 92.140625 156.3125 88.28125 Z M 155.269531 97.082031 C 155.179688 97.183594 155.085938 97.28125 154.992188 97.382812 C 155.144531 97.324219 155.234375 97.21875 155.269531 97.082031 Z M 154.992188 97.382812 C 153.917969 97.777344 150.105469 96.300781 145.988281 94.710938 L 138.269531 99.515625 C 141.363281 101.652344 145.320312 102.3125 149.070312 100.925781 C 151.625 99.980469 153.632812 98.839844 154.992188 97.382812 Z M 138.269531 99.515625 C 138.234375 99.488281 138.199219 99.464844 138.164062 99.4375 C 138.175781 99.480469 138.179688 99.519531 138.195312 99.5625 Z M 138.164062 99.4375 C 137.199219 96.433594 140.972656 94.839844 145.226562 94.417969 C 138.921875 91.988281 132.222656 89.523438 133.441406 93.078125 C 134.371094 95.78125 136.0625 97.953125 138.164062 99.4375 Z M 145.226562 94.417969 C 145.488281 94.515625 145.730469 94.609375 145.988281 94.710938 L 146.601562 94.332031 C 146.140625 94.351562 145.683594 94.371094 145.226562 94.417969 Z M 145.226562 94.417969 "/>
<path style="fill:none;stroke-width:0.264583;stroke-linecap:butt;stroke-linejoin:miter;stroke:rgb(0%,0%,0%);stroke-opacity:1;stroke-miterlimit:4;" d="M 80.752597 52.877217 C 81.489488 50.890978 83.646863 49.682064 85.755576 50.03012 " transform="matrix(1.685714,0,0,1.683458,2.030437,-2.946276)"/>
<path style="fill:none;stroke-width:0.264583;stroke-linecap:butt;stroke-linejoin:miter;stroke:rgb(0%,0%,0%);stroke-opacity:1;stroke-miterlimit:4;" d="M 78.326419 52.164863 C 79.417851 49.201747 82.617997 47.391857 85.74399 47.913941 " transform="matrix(1.685714,0,0,1.683458,2.030437,-2.946276)"/>
<path style="fill:none;stroke-width:0.264583;stroke-linecap:butt;stroke-linejoin:miter;stroke:rgb(0%,0%,0%);stroke-opacity:1;stroke-miterlimit:4;" d="M 75.962807 50.645019 C 77.420367 46.672541 81.695725 44.247752 85.866805 44.948505 " transform="matrix(1.685714,0,0,1.683458,2.030437,-2.946276)"/>
<path style="fill:none;stroke-width:0.264583;stroke-linecap:butt;stroke-linejoin:miter;stroke:rgb(0%,0%,0%);stroke-opacity:1;stroke-miterlimit:4;" d="M 73.161231 49.881616 C 75.128591 44.500673 80.900902 41.219666 86.534178 42.166378 " transform="matrix(1.685714,0,0,1.683458,2.030437,-2.946276)"/>
<path style=" stroke:none;fill-rule:nonzero;fill:rgb(0%,0%,0%);fill-opacity:0.454902;" d="M 147.574219 87.398438 C 148 88.660156 147.328125 90.03125 146.066406 90.472656 C 144.804688 90.914062 143.425781 90.257812 142.96875 89.003906 C 142.515625 87.75 143.152344 86.363281 144.40625 85.894531 C 145.65625 85.425781 147.050781 86.046875 147.535156 87.292969 "/>
<path style=" stroke:none;fill-rule:nonzero;fill:rgb(100%,40%,0%);fill-opacity:0.454902;" d="M 247.347656 83.277344 C 247.003906 83.277344 246.660156 83.3125 246.324219 83.378906 C 243.546875 83.953125 241.683594 86.765625 242.144531 89.6875 C 242.601562 92.605469 245.210938 94.550781 247.996094 94.042969 C 250.785156 93.535156 252.707031 90.769531 252.3125 87.835938 L 252.273438 87.589844 C 251.894531 85.480469 250.359375 83.835938 248.367188 83.394531 C 248.03125 83.320312 247.691406 83.28125 247.347656 83.277344 Z M 236.0625 89.652344 C 235.140625 89.609375 234.664062 90.058594 234.847656 91.21875 C 235.289062 94.042969 236.582031 96.472656 238.390625 98.300781 C 237.964844 95.175781 241.957031 94.257812 246.222656 94.582031 C 242.242188 92.183594 238.082031 89.738281 236.0625 89.652344 Z M 246.222656 94.582031 C 246.457031 94.722656 246.683594 94.855469 246.917969 95 L 247.589844 94.734375 C 247.132812 94.671875 246.675781 94.613281 246.222656 94.578125 Z M 247.589844 94.734375 C 251.527344 95.261719 255.308594 96.742188 255.671875 98.433594 C 255.722656 98.664062 255.699219 98.820312 255.644531 98.945312 C 257.796875 97.152344 258.742188 94.472656 258.203125 90.460938 Z M 255.644531 98.945312 C 255.542969 99.03125 255.429688 99.109375 255.320312 99.191406 C 255.480469 99.164062 255.585938 99.074219 255.644531 98.945312 Z M 255.320312 99.191406 C 254.195312 99.394531 250.695312 97.277344 246.917969 95 L 238.484375 98.394531 C 241.15625 101.035156 244.9375 102.371094 248.871094 101.65625 C 251.550781 101.167969 253.726562 100.390625 255.320312 99.191406 Z M 238.484375 98.394531 C 238.453125 98.363281 238.421875 98.332031 238.390625 98.300781 C 238.394531 98.34375 238.390625 98.382812 238.398438 98.429688 Z M 238.484375 98.394531 "/>
<path style=" stroke:none;fill-rule:nonzero;fill:rgb(0%,0%,0%);fill-opacity:0.454902;" d="M 249.175781 87.578125 C 249.601562 88.84375 248.929688 90.214844 247.667969 90.65625 C 246.40625 91.097656 245.027344 90.441406 244.570312 89.1875 C 244.113281 87.933594 244.753906 86.546875 246.003906 86.078125 C 247.253906 85.605469 248.652344 86.230469 249.136719 87.472656 "/>
<path style="fill-rule:nonzero;fill:rgb(0%,0%,0%);fill-opacity:1;stroke-width:0.264583;stroke-linecap:butt;stroke-linejoin:miter;stroke:rgb(0%,0%,0%);stroke-opacity:1;stroke-miterlimit:4;" d="M 141.279112 49.461938 C 143.325972 48.926665 145.555545 50.001424 146.478894 51.928534 " transform="matrix(1.660104,0.292329,-0.292721,1.657883,26.518595,-42.91932)"/>
<path style="fill:none;stroke-width:0.264583;stroke-linecap:butt;stroke-linejoin:miter;stroke:rgb(0%,0%,0%);stroke-opacity:1;stroke-miterlimit:4;" d="M 140.4709 47.066855 C 143.524007 46.259907 146.841247 47.845019 148.206735 50.704963 " transform="matrix(1.660104,0.292329,-0.292721,1.657883,26.518595,-42.91932)"/>
<path style="fill:none;stroke-width:0.264583;stroke-linecap:butt;stroke-linejoin:miter;stroke:rgb(0%,0%,0%);stroke-opacity:1;stroke-miterlimit:4;" d="M 140.361644 44.258718 C 144.450665 43.174864 148.886583 45.286066 150.708175 49.104657 " transform="matrix(1.660104,0.292329,-0.292721,1.657883,26.518595,-42.91932)"/>
<path style="fill:none;stroke-width:0.264583;stroke-linecap:butt;stroke-linejoin:miter;stroke:rgb(0%,0%,0%);stroke-opacity:1;stroke-miterlimit:4;" d="M 139.378351 41.524588 C 144.914053 40.051343 150.912604 42.897807 153.368068 48.056029 " transform="matrix(1.660104,0.292329,-0.292721,1.657883,26.518595,-42.91932)"/>
</g>
</svg>